<svg xmlns="http://www.w3.org/2000/svg" xmlns:xlink="http://www.w3.org/1999/xlink" viewBox="0 0 64 64" id="notepad"><defs><linearGradient id="a" x1="31.729" x2="31.729" y1="63.783" y2="-.184" gradientUnits="userSpaceOnUse"><stop offset="0" stop-color="#e93e3a"></stop><stop offset=".35" stop-color="#ed683c"></stop><stop offset=".7" stop-color="#f3903f"></stop><stop offset="1" stop-color="#fdc70c"></stop></linearGradient><linearGradient id="b" x1="27" x2="27" y1="63.783" y2="-.184" xlink:href="#a"></linearGradient><linearGradient id="c" x1="25" x2="25" y1="63.783" y2="-.184" xlink:href="#a"></linearGradient><linearGradient id="d" x1="22" x2="22" y1="63.783" y2="-.184" xlink:href="#a"></linearGradient><linearGradient id="e" x1="21" x2="21" y1="63.783" y2="-.184" xlink:href="#a"></linearGradient><linearGradient id="f" x1="20" x2="20" y1="63.783" y2="-.184" xlink:href="#a"></linearGradient></defs><path fill="url(#a)" d="M60.58,27.25l-2.83-2.83a3,3,0,0,0-4.24,0L52,25.93V10a3.009,3.009,0,0,0-3-3H45V5a3,3,0,0,0-6,0V7H35V5a3,3,0,0,0-6,0V7H25V5a3,3,0,0,0-6,0V7H15V5A3,3,0,0,0,9,5V7H5a3.009,3.009,0,0,0-3,3V59a3.009,3.009,0,0,0,3,3H49a3.009,3.009,0,0,0,3-3V40.07l8.58-8.58A3,3,0,0,0,60.58,27.25Zm-9.2,2.12,1.42,1.42L39.36,44.22l-1.41-1.41ZM36.13,46.65l.79-2.05,3.48,3.48-2.05.79Zm.18,3-1.57.61.61-1.57ZM41,5a1,1,0,0,1,2,0v6a1,1,0,0,1-2,0ZM31,5a1,1,0,0,1,2,0v6a1,1,0,0,1-2,0ZM21,5a1,1,0,0,1,2,0v6a1,1,0,0,1-2,0ZM11,5a1,1,0,0,1,2,0v6a1,1,0,0,1-2,0ZM4,10A1,1,0,0,1,5,9H9v2a3,3,0,0,0,6,0V9h4v2a3,3,0,0,0,6,0V9h4v2a3,3,0,0,0,6,0V9h4v2a3,3,0,0,0,6,0V9h4a1,1,0,0,1,1,1v8H4ZM50,59a1,1,0,0,1-1,1H5a1,1,0,0,1-1-1V20H50v7.93L35.83,42.1a1.014,1.014,0,0,0-.23.35l-3.53,9.19a.988.988,0,0,0,.22,1.07A1.007,1.007,0,0,0,33,53a.922.922,0,0,0,.36-.07l9.19-3.53a1.014,1.014,0,0,0,.35-.23l7.1-7.1ZM42.19,47.05l-1.41-1.41L54.21,32.2l1.42,1.42ZM59.16,30.08,57.04,32.2,52.8,27.96l2.12-2.12a1,1,0,0,1,1.41,0l2.83,2.83A1,1,0,0,1,59.16,30.08Z"></path><rect width="34" height="2" x="10" y="27" fill="url(#b)"></rect><rect width="30" height="2" x="10" y="33" fill="url(#c)"></rect><rect width="24" height="2" x="10" y="39" fill="url(#d)"></rect><rect width="22" height="2" x="10" y="45" fill="url(#e)"></rect><rect width="20" height="2" x="10" y="51" fill="url(#f)"></rect></svg>